<svg width="72" height="72" viewBox="0 0 72 72" fill="none" xmlns="http://www.w3.org/2000/svg">
<rect width="72" height="72" rx="36" fill="white" fill-opacity="0.12"/>
<path d="M41.158 42.7037L40.2101 43.7037C40.2101 43.7037 37.9539 46.0766 31.7976 39.5954C25.6414 33.1141 27.8976 30.7412 27.8976 30.7412L28.4955 30.11C29.9664 28.56 30.106 26.0725 28.8205 24.2558L26.1955 20.5412C24.6039 18.2912 21.531 17.9954 19.708 19.9141L16.4393 23.3537C15.5372 24.3058 14.933 25.537 15.006 26.9058C15.1935 30.4058 16.6893 37.9329 25.031 46.7183C33.8789 56.0308 42.181 56.4016 45.5747 56.0662C46.6497 55.962 47.583 55.3808 48.3351 54.5891L51.2934 51.4725C53.2934 49.3683 52.7309 45.7641 50.1726 44.2933L46.1935 42.0016C44.5143 41.037 42.4705 41.3204 41.158 42.7016M36.3747 16.312C36.4076 16.1094 36.4801 15.9153 36.5881 15.7407C36.6961 15.5661 36.8374 15.4145 37.0039 15.2945C37.1705 15.1746 37.3591 15.0886 37.5589 15.0416C37.7587 14.9945 37.9659 14.9873 38.1685 15.0204C38.2205 15.0308 38.3914 15.062 38.481 15.0829C38.6601 15.1204 38.9046 15.1829 39.2143 15.2704C39.833 15.4516 40.6976 15.7495 41.7351 16.2245C43.8101 17.1766 46.5705 18.8412 49.4372 21.7058C52.3039 24.5725 53.9685 27.335 54.9205 29.41C55.3955 30.4475 55.6914 31.3099 55.8726 31.9308C55.9634 32.2429 56.0419 32.5584 56.108 32.8766L56.1185 32.9412C56.1871 33.3538 56.0907 33.7768 55.8503 34.119C55.6098 34.4612 55.2444 34.6951 54.833 34.7704C54.4251 34.8366 54.0076 34.7385 53.6718 34.4976C53.336 34.2567 53.1093 33.8926 53.0414 33.485C52.9979 33.2549 52.9416 33.0274 52.8726 32.8037C52.6597 32.0882 52.3951 31.3892 52.081 30.712C51.2685 28.9412 49.806 26.4954 47.2268 23.9162C44.6476 21.337 42.2039 19.8766 40.431 19.0641C39.7545 18.75 39.0561 18.4854 38.3414 18.2724C38.1221 18.2109 37.9012 18.1553 37.6789 18.1058C37.2699 18.0371 36.9042 17.8108 36.6603 17.4754C36.4164 17.14 36.3139 16.7223 36.3747 16.312Z" fill="#00D8BD"/>
<path fill-rule="evenodd" clip-rule="evenodd" d="M38.4887 22.4697C38.5417 22.2836 38.6308 22.1097 38.751 21.958C38.8712 21.8063 39.02 21.6798 39.1891 21.5857C39.3582 21.4915 39.5442 21.4317 39.7364 21.4094C39.9287 21.3872 40.1234 21.4031 40.3095 21.4561L40.3154 21.4581L40.3213 21.4601L40.337 21.464L40.3763 21.4758L40.4863 21.5151C40.574 21.5452 40.6899 21.591 40.8339 21.6526C41.1207 21.7744 41.5116 21.9629 41.9928 22.2478C42.9533 22.8174 44.2653 23.7603 45.8072 25.3042C47.3491 26.8462 48.2939 28.1583 48.8635 29.1189C49.1483 29.6001 49.3368 29.991 49.4586 30.2778C49.5239 30.4279 49.5828 30.5805 49.6354 30.7355L49.6452 30.7748L49.6511 30.7905V30.7964L49.6531 30.7984C49.6531 30.7984 49.6531 30.8023 48.2389 31.2069L49.6531 30.8023C49.7528 31.174 49.7032 31.5699 49.5148 31.9055C49.3263 32.2411 49.0141 32.4896 48.6448 32.5979C48.2756 32.7062 47.8786 32.6656 47.5388 32.485C47.199 32.3044 46.9434 31.9979 46.8266 31.6312L46.8207 31.6116L46.752 31.4387C46.6267 31.1576 46.4851 30.8841 46.3277 30.6196C45.8897 29.881 45.0982 28.7614 43.7232 27.3864C42.3483 26.0114 41.2307 25.2217 40.4902 24.7837C40.1722 24.5969 39.8414 24.4328 39.5003 24.2926L39.4806 24.2847C39.1096 24.1732 38.7974 23.9199 38.6118 23.5798C38.4261 23.2398 38.3819 22.8422 38.4887 22.4697Z" fill="#00D8BD"/>
</svg>
