<svg width="72" height="72" viewBox="0 0 72 72" fill="none" xmlns="http://www.w3.org/2000/svg">
<rect width="72" height="72" rx="36" fill="white" fill-opacity="0.12"/>
<path d="M55.212 26.305C55.212 31.4944 50.8142 35.7016 45.3911 35.7016C44.7521 35.7016 44.119 35.6427 43.4918 35.5248C43.04 35.4404 42.8142 35.3991 42.657 35.4227C42.4999 35.4463 42.276 35.5641 41.8321 35.8018C40.5612 36.4792 39.0985 36.7069 37.6818 36.448C38.22 35.7861 38.5873 34.9925 38.7503 34.1421C38.8485 33.6216 38.605 33.1148 38.2396 32.7455C36.5351 31.0349 35.5756 28.7199 35.5703 26.305C35.5703 21.1177 39.9681 16.9104 45.3911 16.9104C50.8142 16.9104 55.212 21.1177 55.212 26.305Z" stroke="#00D8BD" stroke-width="3" stroke-linejoin="round"/>
<path d="M42.4297 26.7313H42.4454M48.3222 26.7313H48.3379" stroke="#00D8BD" stroke-width="3" stroke-linecap="round"/>
<path d="M26.7356 54.2296H21.2673C20.632 54.2426 20.0007 54.127 19.4112 53.8898C17.5138 53.0747 16.5494 51.9963 16.1016 51.3226C15.98 51.136 15.9203 50.9159 15.9309 50.6934C15.9415 50.471 16.0218 50.2575 16.1605 50.0832C18.3604 47.1605 23.4672 45.3967 26.7454 45.3967C30.0216 45.3967 35.1206 47.1605 37.3205 50.0832C37.5974 50.4505 37.6347 50.9396 37.3794 51.3226C36.9296 51.9963 35.9652 53.0747 34.0678 53.8898C33.4783 54.127 32.8469 54.2426 32.2117 54.2296H26.7356ZM32.2018 35.1556C32.2003 36.6013 31.6246 37.9873 30.6014 39.0087C29.5781 40.03 28.1911 40.6032 26.7454 40.6022C26.0292 40.6032 25.3198 40.4632 24.6577 40.19C23.9957 39.9168 23.3939 39.5158 22.8869 39.0101C22.3798 38.5043 21.9773 37.9035 21.7025 37.2422C21.4276 36.5808 21.2858 35.8718 21.285 35.1556C21.2858 34.4394 21.4276 33.7303 21.7025 33.069C21.9773 32.4076 22.3798 31.8069 22.8869 31.3011C23.3939 30.7953 23.9957 30.3943 24.6577 30.1212C25.3198 29.848 26.0292 29.7079 26.7454 29.7089C28.1911 29.7079 29.5781 30.2811 30.6014 31.3025C31.6246 32.3239 32.2003 33.7098 32.2018 35.1556Z" stroke="#00D8BD" stroke-width="3" stroke-linecap="round" stroke-linejoin="round"/>
</svg>
