<svg width="72" height="72" viewBox="0 0 72 72" fill="none" xmlns="http://www.w3.org/2000/svg">
<rect width="72" height="72" rx="36" fill="white" fill-opacity="0.12"/>
<path d="M35.5699 15.9283C46.418 15.9283 55.2116 24.7219 55.2116 35.57C55.2116 46.4181 46.418 55.2117 35.5699 55.2117C24.7218 55.2117 15.9282 46.4181 15.9282 35.57C15.9282 24.7219 24.7218 15.9283 35.5699 15.9283ZM35.5699 19.8567C31.4025 19.8567 27.4057 21.5122 24.4589 24.459C21.5121 27.4058 19.8566 31.4026 19.8566 35.57C19.8566 39.7374 21.5121 43.7342 24.4589 46.681C27.4057 49.6278 31.4025 51.2833 35.5699 51.2833C39.7373 51.2833 43.7341 49.6278 46.6809 46.681C49.6277 43.7342 51.2832 39.7374 51.2832 35.57C51.2832 31.4026 49.6277 27.4058 46.6809 24.459C43.7341 21.5122 39.7373 19.8567 35.5699 19.8567ZM35.5699 43.4267C36.0908 43.4267 36.5904 43.6336 36.9588 44.002C37.3271 44.3703 37.5341 44.8699 37.5341 45.3908C37.5341 45.9118 37.3271 46.4114 36.9588 46.7797C36.5904 47.1481 36.0908 47.355 35.5699 47.355C35.049 47.355 34.5494 47.1481 34.181 46.7797C33.8127 46.4114 33.6057 45.9118 33.6057 45.3908C33.6057 44.8699 33.8127 44.3703 34.181 44.002C34.5494 43.6336 35.049 43.4267 35.5699 43.4267ZM35.5699 24.7671C37.2243 24.7671 38.827 25.3433 40.1028 26.3966C41.3785 27.4498 42.2477 28.9145 42.561 30.539C42.8742 32.1634 42.612 33.8462 41.8194 35.2984C41.0268 36.7505 39.7533 37.8814 38.2176 38.4966C37.9901 38.5803 37.7851 38.7154 37.6185 38.8914C37.5321 38.9896 37.5183 39.1153 37.5203 39.245L37.5341 39.4983C37.5335 39.999 37.3418 40.4805 36.9981 40.8445C36.6545 41.2086 36.1848 41.4276 35.685 41.457C35.1852 41.4863 34.6931 41.3237 34.3092 41.0024C33.9253 40.6811 33.6786 40.2253 33.6195 39.7282L33.6057 39.4983V39.0073C33.6057 36.7426 35.4324 35.3834 36.7562 34.8511C37.295 34.636 37.7651 34.2781 38.1158 33.816C38.4666 33.3539 38.6848 32.8049 38.7471 32.2281C38.8094 31.6513 38.7134 31.0684 38.4694 30.542C38.2255 30.0157 37.8427 29.5657 37.3623 29.2404C36.8818 28.9152 36.3219 28.727 35.7425 28.696C35.1632 28.6649 34.5864 28.7923 34.074 29.0644C33.5616 29.3365 33.133 29.7431 32.8342 30.2404C32.5354 30.7377 32.3777 31.307 32.3781 31.8872C32.3781 32.4081 32.1712 32.9077 31.8028 33.2761C31.4345 33.6444 30.9349 33.8514 30.414 33.8514C29.893 33.8514 29.3934 33.6444 29.0251 33.2761C28.6567 32.9077 28.4498 32.4081 28.4498 31.8872C28.4498 29.9988 29.1999 28.1878 30.5352 26.8525C31.8705 25.5172 33.6815 24.7671 35.5699 24.7671Z" fill="#00D8BD"/>
</svg>
